



<svg width="55" height="39" viewBox="0 0 55 39" fill="none" xmlns="http://www.w3.org/2000/svg">
<path d="M34.9039 34.1963V2.61719H19.1968V5.11024C19.1968 5.56932 18.8063 5.94125 18.3242 5.94125V7.60329C18.8063 7.60329 19.1968 7.97529 19.1968 8.4343V34.1963H34.9039V34.1963Z" fill="white"/>
<path d="M52.4244 2.55469H36.582V34.2626H52.4244V2.55469Z" fill="#259245"/>
<path d="M52.3556 2.61719H36.6484V34.1963H52.3556V2.61719Z" fill="#259245"/>
<path d="M1.67969 34.2626V2.55469H17.5221V5.11214C17.5221 5.53483 17.8832 5.87875 18.327 5.87875H18.3947V7.6696H18.327C17.8832 7.6696 17.5221 8.01352 17.5221 8.43621V34.2626H1.67969V34.2626Z" fill="#259245"/>
<path d="M17.4531 5.11024V2.61719H1.74609V34.1963H17.4532V8.43437C17.4532 7.97535 17.8438 7.60335 18.3258 7.60335V5.94132C17.8438 5.94132 17.4531 5.56932 17.4531 5.11024Z" fill="#259245"/>
<path d="M53.2297 0.953125H0.872603C0.390551 0.953125 0 1.32513 0 1.78421V35.0254C0 35.4845 0.390551 35.8565 0.872603 35.8565H53.2296C53.7117 35.8565 54.1023 35.4845 54.1023 35.0254V1.78421C54.1023 1.32513 53.7118 0.953125 53.2297 0.953125ZM52.357 34.1944H36.65V2.61522H52.3571L52.357 34.1944ZM18.325 7.60138C17.8429 7.60138 17.4524 7.97339 17.4524 8.4324V34.1944H1.74527V2.61522H17.4524V5.10827C17.4524 5.56735 17.8429 5.93929 18.325 5.93929C18.807 5.93929 19.1976 5.56735 19.1976 5.10827V2.61522H34.9047V34.1944H19.1976V8.4324C19.1976 7.97339 18.807 7.60138 18.325 7.60138Z" fill="black"/>
<path d="M42.0611 10.5519C42.3957 11.0889 42.1013 11.7788 41.4913 11.9467C39.9747 12.3639 37.9502 12.8835 35.7693 13.3418C35.2201 13.4572 34.6886 13.0903 34.5827 12.5392C34.0304 9.66525 33.2683 6.87993 32.6758 4.90016C32.4459 4.132 33.1534 3.41813 33.8957 3.72148C37.3177 5.12005 40.1772 7.52795 42.0611 10.5519Z" fill="white" stroke="black" stroke-width="0.4"/>
<path d="M32.0039 12.9999C32.1095 13.549 31.7333 14.0721 31.1791 14.1461C29.7169 14.3412 28.2909 14.4617 27.0005 14.4617C25.71 14.4617 24.2841 14.3411 22.8218 14.1461C22.2676 14.0721 21.8914 13.549 21.997 12.9999C22.7089 9.29918 23.7991 5.68127 24.38 3.87619C24.5421 3.37261 24.6065 3.17481 24.7181 2.90933V2.90933C24.828 2.64746 25.08 2.47591 25.3629 2.45091C25.902 2.40326 26.4482 2.37891 27.0005 2.37891C27.6854 2.37891 28.3614 2.4164 29.026 2.48935C29.1207 2.49974 29.1986 2.56732 29.2256 2.65867V2.65867C29.2665 2.79687 29.3306 2.9911 29.4383 3.31703L29.4496 3.35126C29.9492 4.8632 31.211 8.8778 32.0039 12.9999Z" fill="#259245" stroke="black" stroke-width="0.4"/>
<path d="M18.2302 13.3417C18.7794 13.4571 19.3108 13.0903 19.4167 12.5391C20.1652 8.64478 21.2983 4.91693 21.8694 3.14258V3.14258C21.875 3.12512 21.8587 3.1085 21.8411 3.11366C17.6517 4.3426 14.1332 7.02925 11.9385 10.5519C11.6039 11.0889 11.8983 11.7788 12.5083 11.9467C14.0248 12.3639 16.0493 12.8835 18.2302 13.3417Z" fill="white" stroke="black" stroke-width="0.4"/>
<path d="M27.0007 26.9628C28.0341 26.9628 29.1383 26.8931 30.2719 26.7739C30.963 26.7012 31.5345 27.321 31.3719 27.9967C30.7478 30.5899 30.0474 32.8905 29.621 34.2151C29.459 34.7187 29.3945 34.9165 29.283 35.182V35.182C29.1731 35.444 28.9209 35.6155 28.6379 35.6405C28.0989 35.6881 27.5528 35.7125 27.0007 35.7125C26.4485 35.7125 25.9023 35.6881 25.3632 35.6405C25.0803 35.6155 24.8282 35.4439 24.7184 35.182V35.182C24.6069 34.9166 24.5424 34.7187 24.3802 34.2152C23.954 32.8907 23.2536 30.5903 22.6296 27.9973C22.467 27.3216 23.0384 26.7018 23.7296 26.7744C24.8604 26.8932 25.9647 26.9628 27.0007 26.9628Z" fill="#259245" stroke="black" stroke-width="0.4"/>
<path d="M15.3973 25.2762C14.1592 24.9828 13.0261 24.6886 12.0722 24.429C11.2986 24.2185 10.6064 24.9442 10.9388 25.6737C12.9583 30.1053 16.9408 33.5374 21.8415 34.975C21.8591 34.9801 21.8753 34.9635 21.8697 34.9461V34.9461C21.3609 33.3651 20.4059 30.2333 19.6743 26.8147C19.5888 26.4154 19.2732 26.1053 18.8724 26.0276C17.6579 25.7923 16.4819 25.5331 15.3973 25.2762Z" fill="white" stroke="black" stroke-width="0.4"/>
<path d="M43.6974 23.9305C42.0324 24.4165 38.7298 25.3298 35.128 26.0272C34.7272 26.1048 34.4113 26.415 34.3259 26.8143C33.5944 30.2331 32.6392 33.365 32.1305 34.9461V34.9461C32.1249 34.9635 32.1411 34.9801 32.1586 34.9749C37.674 33.3571 42.0267 29.2128 43.7266 23.9607C43.7325 23.9425 43.7157 23.9252 43.6974 23.9305V23.9305Z" fill="white" stroke="black" stroke-width="0.4"/>
<path d="M10.4647 13.9799C10.3932 13.9584 10.3174 13.9975 10.2941 14.0685C9.77808 15.6406 9.5 17.3129 9.5 19.0468C9.5 19.6448 9.53306 20.2354 9.59755 20.817C9.617 20.9924 9.73961 21.1385 9.90785 21.1919V21.1919L9.91005 21.1927L9.91275 21.1935L9.91465 21.1941C10.0034 21.2221 12.6051 22.0403 16.0313 22.8522C16.5637 22.9783 17.1133 23.1036 17.6742 23.2255C18.3509 23.3724 18.958 22.7933 18.8793 22.1053C18.7581 21.0457 18.6875 20.0136 18.6875 19.0468C18.6875 18.3751 18.7216 17.672 18.783 16.9499C18.8273 16.4299 18.479 15.9541 17.9679 15.8489C14.8417 15.2051 12.0374 14.4356 10.4766 13.9834L10.4647 13.9799V13.9799Z" fill="white" stroke="black" stroke-width="0.4"/>
<path d="M9.68359 21.1484C9.74446 21.1559 9.79407 21.1638 9.81053 21.1673C9.82494 21.1708 9.84753 21.1764 9.85572 21.1786L9.87382 21.1835L9.88356 21.1862L9.89381 21.1893L9.9024 21.1918C9.89757 21.1904 9.79989 21.1672 9.68359 21.1484Z" fill="#BFBFBF"/>
<path d="M36.0326 15.8489C35.5214 15.9541 35.1731 16.43 35.2174 16.9501C35.2789 17.6722 35.3129 18.3753 35.3129 19.0468C35.3129 20.0136 35.2424 21.0456 35.1212 22.105C35.0425 22.7931 35.65 23.3723 36.3267 23.2253C39.0791 22.6271 41.5252 21.9518 42.9283 21.5424C43.4569 21.3879 43.6648 21.3265 43.9434 21.2203V21.2203C44.2167 21.1164 44.4007 20.861 44.4283 20.57C44.476 20.0683 44.5004 19.5603 44.5004 19.0468C44.5004 17.3177 44.2239 15.6499 43.7107 14.0816C43.6851 14.0033 43.6015 13.9602 43.5226 13.9838V13.9838C41.9616 14.4361 39.158 15.2053 36.0326 15.8489Z" fill="white" stroke="black" stroke-width="0.4"/>
<path d="M31.5019 16.6282C32.0667 16.5533 32.59 16.9535 32.6303 17.5219C32.6674 18.0466 32.6875 18.557 32.6875 19.047C32.6875 20.3531 32.5446 21.8048 32.3166 23.2887C32.2512 23.7142 31.9144 24.0458 31.4879 24.1055C29.918 24.3252 28.3815 24.4635 27 24.4635C25.624 24.4635 24.0877 24.3256 22.5119 24.1049C22.0855 24.0452 21.7486 23.7136 21.6833 23.288C21.4555 21.8044 21.3125 20.353 21.3125 19.047C21.3125 18.5571 21.3326 18.0466 21.3698 17.5217C21.41 16.9534 21.9333 16.5533 22.4981 16.6282C24.0598 16.8351 25.5953 16.9638 27 16.9638C28.4048 16.9638 29.9402 16.8351 31.5019 16.6282Z" fill="#259245" stroke="black" stroke-width="0.4"/>
</svg>
